<svg xmlns="http://www.w3.org/2000/svg" xmlns:xlink="http://www.w3.org/1999/xlink" width="265" height="180" zoomAndPan="magnify" viewBox="0 0 375 374.999991" preserveAspectRatio="xMidYMid meet" version="1.0"><defs><g/><clipPath id="3dc6aa49c4"><path d="M 112.5 123.832031 L 262.5 123.832031 L 262.5 188 L 112.5 188 Z M 112.5 123.832031 " clip-rule="nonzero"/></clipPath></defs><g clip-path="url(#3dc6aa49c4)"><path fill="#000000" d="M 137.101562 187.882812 L 135.867188 186.648438 L 185.421875 137.09375 L 174.894531 126.566406 L 113.878906 187.585938 L 112.644531 186.347656 L 174.894531 124.09375 L 186.65625 135.855469 L 198.679688 123.832031 L 262.355469 187.507812 L 235.835938 187.507812 L 186.65625 138.328125 Z M 236.550781 185.75 L 258.085938 185.75 L 198.679688 126.304688 L 187.894531 137.09375 Z M 236.550781 185.75 " fill-opacity="1" fill-rule="nonzero"/></g><path fill="#000000" d="M 185.722656 188.707031 L 177.367188 188.707031 L 177.367188 180.355469 L 185.722656 180.355469 Z M 179.128906 186.949219 L 183.960938 186.949219 L 183.960938 182.117188 L 179.128906 182.117188 Z M 179.128906 186.949219 " fill-opacity="1" fill-rule="nonzero"/><path fill="#000000" d="M 196.132812 188.707031 L 187.742188 188.707031 L 187.742188 180.355469 L 196.132812 180.355469 Z M 189.503906 186.949219 L 194.375 186.949219 L 194.375 182.117188 L 189.503906 182.117188 Z M 189.503906 186.949219 " fill-opacity="1" fill-rule="nonzero"/><path fill="#000000" d="M 185.722656 178.257812 L 177.367188 178.257812 L 177.367188 169.867188 L 185.722656 169.867188 Z M 179.128906 176.496094 L 183.960938 176.496094 L 183.960938 171.628906 L 179.128906 171.628906 Z M 179.128906 176.496094 " fill-opacity="1" fill-rule="nonzero"/><path fill="#000000" d="M 196.132812 178.257812 L 187.742188 178.257812 L 187.742188 169.867188 L 196.132812 169.867188 Z M 189.503906 176.496094 L 194.375 176.496094 L 194.375 171.628906 L 189.503906 171.628906 Z M 189.503906 176.496094 " fill-opacity="1" fill-rule="nonzero"/><g fill="#000000" fill-opacity="1"><g transform="translate(117.873535, 221.792299)"><g><path d="M 14.1875 -19 L 16.15625 -19 L 16.15625 0 L 14.1875 0 L 14.1875 -8.515625 L 3.71875 -8.515625 L 3.71875 0 L 1.765625 0 L 1.765625 -19 L 3.71875 -19 L 3.71875 -10.46875 L 14.1875 -10.46875 Z M 14.1875 -19 "/></g></g></g><g fill="#000000" fill-opacity="1"><g transform="translate(137.623839, 221.792299)"><g><path d="M 10.453125 -19.15625 C 11.785156 -19.15625 13.015625 -18.898438 14.140625 -18.390625 C 15.265625 -17.890625 16.238281 -17.195312 17.0625 -16.3125 C 17.882812 -15.425781 18.519531 -14.398438 18.96875 -13.234375 C 19.425781 -12.066406 19.65625 -10.8125 19.65625 -9.46875 C 19.65625 -8.132812 19.425781 -6.882812 18.96875 -5.71875 C 18.519531 -4.550781 17.882812 -3.519531 17.0625 -2.625 C 16.238281 -1.738281 15.265625 -1.039062 14.140625 -0.53125 C 13.015625 -0.03125 11.785156 0.21875 10.453125 0.21875 C 9.109375 0.21875 7.875 -0.03125 6.75 -0.53125 C 5.632812 -1.039062 4.660156 -1.738281 3.828125 -2.625 C 2.992188 -3.519531 2.347656 -4.550781 1.890625 -5.71875 C 1.441406 -6.882812 1.21875 -8.132812 1.21875 -9.46875 C 1.21875 -10.8125 1.441406 -12.066406 1.890625 -13.234375 C 2.347656 -14.398438 2.992188 -15.425781 3.828125 -16.3125 C 4.660156 -17.195312 5.632812 -17.890625 6.75 -18.390625 C 7.875 -18.898438 9.109375 -19.15625 10.453125 -19.15625 Z M 10.453125 -1.703125 C 11.878906 -1.703125 13.128906 -2.050781 14.203125 -2.75 C 15.285156 -3.445312 16.128906 -4.382812 16.734375 -5.5625 C 17.335938 -6.738281 17.640625 -8.039062 17.640625 -9.46875 C 17.640625 -10.894531 17.335938 -12.195312 16.734375 -13.375 C 16.128906 -14.550781 15.285156 -15.488281 14.203125 -16.1875 C 13.128906 -16.882812 11.878906 -17.234375 10.453125 -17.234375 C 9.023438 -17.234375 7.765625 -16.882812 6.671875 -16.1875 C 5.585938 -15.488281 4.742188 -14.550781 4.140625 -13.375 C 3.535156 -12.195312 3.234375 -10.894531 3.234375 -9.46875 C 3.234375 -8.039062 3.535156 -6.738281 4.140625 -5.5625 C 4.742188 -4.382812 5.585938 -3.445312 6.671875 -2.75 C 7.765625 -2.050781 9.023438 -1.703125 10.453125 -1.703125 Z M 10.453125 -1.703125 "/></g></g></g><g fill="#000000" fill-opacity="1"><g transform="translate(160.331204, 221.792299)"><g><path d="M 13.78125 -19 L 15.734375 -19 C 15.734375 -19 15.734375 -18.734375 15.734375 -18.203125 C 15.734375 -17.679688 15.734375 -16.988281 15.734375 -16.125 C 15.734375 -15.269531 15.734375 -14.335938 15.734375 -13.328125 C 15.734375 -12.316406 15.734375 -11.3125 15.734375 -10.3125 C 15.734375 -9.320312 15.734375 -8.425781 15.734375 -7.625 C 15.734375 -5.832031 15.425781 -4.359375 14.8125 -3.203125 C 14.195312 -2.046875 13.359375 -1.1875 12.296875 -0.625 C 11.242188 -0.0625 10.066406 0.21875 8.765625 0.21875 C 7.460938 0.21875 6.269531 -0.0507812 5.1875 -0.59375 C 4.113281 -1.132812 3.25 -1.972656 2.59375 -3.109375 C 1.945312 -4.253906 1.625 -5.734375 1.625 -7.546875 C 1.625 -8.328125 1.625 -9.21875 1.625 -10.21875 C 1.625 -11.21875 1.625 -12.226562 1.625 -13.25 C 1.625 -14.28125 1.625 -15.226562 1.625 -16.09375 C 1.625 -16.957031 1.625 -17.65625 1.625 -18.1875 C 1.625 -18.726562 1.625 -19 1.625 -19 L 3.578125 -19 C 3.578125 -19 3.578125 -18.785156 3.578125 -18.359375 C 3.578125 -17.929688 3.578125 -17.367188 3.578125 -16.671875 C 3.578125 -15.984375 3.578125 -15.210938 3.578125 -14.359375 C 3.578125 -13.503906 3.578125 -12.640625 3.578125 -11.765625 C 3.578125 -10.898438 3.578125 -10.09375 3.578125 -9.34375 C 3.578125 -8.59375 3.578125 -7.96875 3.578125 -7.46875 C 3.578125 -6.195312 3.8125 -5.132812 4.28125 -4.28125 C 4.757812 -3.4375 5.390625 -2.800781 6.171875 -2.375 C 6.960938 -1.945312 7.828125 -1.734375 8.765625 -1.734375 C 9.703125 -1.734375 10.550781 -1.953125 11.3125 -2.390625 C 12.070312 -2.828125 12.671875 -3.472656 13.109375 -4.328125 C 13.554688 -5.191406 13.78125 -6.238281 13.78125 -7.46875 C 13.78125 -8.164062 13.78125 -9.003906 13.78125 -9.984375 C 13.78125 -10.960938 13.78125 -11.976562 13.78125 -13.03125 C 13.78125 -14.082031 13.78125 -15.054688 13.78125 -15.953125 C 13.78125 -16.859375 13.78125 -17.59375 13.78125 -18.15625 C 13.78125 -18.71875 13.78125 -19 13.78125 -19 Z M 13.78125 -19 "/></g></g></g><g fill="#000000" fill-opacity="1"><g transform="translate(179.538933, 221.792299)"><g><path d="M 8.390625 -10.53125 C 9.253906 -10.382812 10.101562 -10.203125 10.9375 -9.984375 C 11.769531 -9.765625 12.519531 -9.46875 13.1875 -9.09375 C 13.851562 -8.726562 14.378906 -8.238281 14.765625 -7.625 C 15.160156 -7.007812 15.359375 -6.234375 15.359375 -5.296875 C 15.359375 -4.078125 15.023438 -3.054688 14.359375 -2.234375 C 13.691406 -1.410156 12.828125 -0.796875 11.765625 -0.390625 C 10.703125 0.015625 9.59375 0.21875 8.4375 0.21875 C 7.007812 0.21875 5.773438 0.0195312 4.734375 -0.375 C 3.691406 -0.78125 2.84375 -1.300781 2.1875 -1.9375 C 1.539062 -2.582031 1.082031 -3.257812 0.8125 -3.96875 L 2.6875 -4.609375 C 3.0625 -3.703125 3.75 -2.992188 4.75 -2.484375 C 5.75 -1.984375 6.960938 -1.734375 8.390625 -1.734375 C 8.890625 -1.734375 9.425781 -1.796875 10 -1.921875 C 10.570312 -2.046875 11.113281 -2.242188 11.625 -2.515625 C 12.144531 -2.796875 12.566406 -3.160156 12.890625 -3.609375 C 13.210938 -4.054688 13.375 -4.617188 13.375 -5.296875 C 13.375 -5.984375 13.1875 -6.523438 12.8125 -6.921875 C 12.445312 -7.316406 11.875 -7.640625 11.09375 -7.890625 C 10.320312 -8.148438 9.3125 -8.390625 8.0625 -8.609375 C 6.832031 -8.835938 5.703125 -9.132812 4.671875 -9.5 C 3.648438 -9.863281 2.835938 -10.382812 2.234375 -11.0625 C 1.628906 -11.738281 1.316406 -12.65625 1.296875 -13.8125 C 1.296875 -14.75 1.53125 -15.625 2 -16.4375 C 2.476562 -17.257812 3.21875 -17.921875 4.21875 -18.421875 C 5.226562 -18.929688 6.507812 -19.1875 8.0625 -19.1875 C 9.1875 -19.1875 10.191406 -19.003906 11.078125 -18.640625 C 11.960938 -18.285156 12.707031 -17.800781 13.3125 -17.1875 C 13.914062 -16.582031 14.335938 -15.894531 14.578125 -15.125 L 12.703125 -14.46875 C 12.535156 -15.15625 12.21875 -15.695312 11.75 -16.09375 C 11.28125 -16.488281 10.722656 -16.773438 10.078125 -16.953125 C 9.441406 -17.140625 8.769531 -17.234375 8.0625 -17.234375 C 6.570312 -17.234375 5.394531 -16.941406 4.53125 -16.359375 C 3.675781 -15.785156 3.25 -14.9375 3.25 -13.8125 C 3.25 -12.875 3.65625 -12.164062 4.46875 -11.6875 C 5.289062 -11.21875 6.597656 -10.832031 8.390625 -10.53125 Z M 8.390625 -10.53125 "/></g></g></g><g fill="#000000" fill-opacity="1"><g transform="translate(197.552985, 221.792299)"><g><path d="M 3.578125 -1.953125 L 14.25 -1.953125 L 14.25 0 L 1.625 0 L 1.625 -19 L 14.09375 -19 L 14.09375 -17.046875 L 3.578125 -17.046875 L 3.578125 -10.46875 L 13.25 -10.46875 L 13.25 -8.515625 L 3.578125 -8.515625 Z M 3.578125 -1.953125 "/></g></g></g><g fill="#000000" fill-opacity="1"><g transform="translate(214.997328, 221.792299)"><g><path d="M 18.1875 -9.75 L 18.1875 -4.125 C 17.375 -2.820312 16.28125 -1.769531 14.90625 -0.96875 C 13.539062 -0.175781 12.019531 0.21875 10.34375 0.21875 C 9 0.21875 7.753906 -0.03125 6.609375 -0.53125 C 5.472656 -1.039062 4.476562 -1.738281 3.625 -2.625 C 2.78125 -3.519531 2.125 -4.550781 1.65625 -5.71875 C 1.1875 -6.882812 0.953125 -8.132812 0.953125 -9.46875 C 0.953125 -10.8125 1.1875 -12.066406 1.65625 -13.234375 C 2.125 -14.398438 2.78125 -15.425781 3.625 -16.3125 C 4.476562 -17.195312 5.472656 -17.890625 6.609375 -18.390625 C 7.753906 -18.898438 9 -19.15625 10.34375 -19.15625 C 12.019531 -19.15625 13.535156 -18.757812 14.890625 -17.96875 C 16.253906 -17.1875 17.351562 -16.132812 18.1875 -14.8125 L 16.453125 -13.984375 C 15.773438 -14.953125 14.910156 -15.734375 13.859375 -16.328125 C 12.816406 -16.929688 11.644531 -17.234375 10.34375 -17.234375 C 8.914062 -17.234375 7.644531 -16.882812 6.53125 -16.1875 C 5.414062 -15.488281 4.539062 -14.550781 3.90625 -13.375 C 3.269531 -12.195312 2.953125 -10.894531 2.953125 -9.46875 C 2.953125 -8.039062 3.269531 -6.738281 3.90625 -5.5625 C 4.539062 -4.382812 5.414062 -3.445312 6.53125 -2.75 C 7.644531 -2.050781 8.914062 -1.703125 10.34375 -1.703125 C 11.53125 -1.703125 12.648438 -1.96875 13.703125 -2.5 C 14.753906 -3.039062 15.597656 -3.726562 16.234375 -4.5625 L 16.234375 -7.796875 L 10.28125 -7.796875 L 10.28125 -9.75 Z M 18.1875 -9.75 "/></g></g></g><g fill="#000000" fill-opacity="1"><g transform="translate(236.239723, 221.792299)"><g><path d="M 10.453125 -19.15625 C 11.785156 -19.15625 13.015625 -18.898438 14.140625 -18.390625 C 15.265625 -17.890625 16.238281 -17.195312 17.0625 -16.3125 C 17.882812 -15.425781 18.519531 -14.398438 18.96875 -13.234375 C 19.425781 -12.066406 19.65625 -10.8125 19.65625 -9.46875 C 19.65625 -8.132812 19.425781 -6.882812 18.96875 -5.71875 C 18.519531 -4.550781 17.882812 -3.519531 17.0625 -2.625 C 16.238281 -1.738281 15.265625 -1.039062 14.140625 -0.53125 C 13.015625 -0.03125 11.785156 0.21875 10.453125 0.21875 C 9.109375 0.21875 7.875 -0.03125 6.75 -0.53125 C 5.632812 -1.039062 4.660156 -1.738281 3.828125 -2.625 C 2.992188 -3.519531 2.347656 -4.550781 1.890625 -5.71875 C 1.441406 -6.882812 1.21875 -8.132812 1.21875 -9.46875 C 1.21875 -10.8125 1.441406 -12.066406 1.890625 -13.234375 C 2.347656 -14.398438 2.992188 -15.425781 3.828125 -16.3125 C 4.660156 -17.195312 5.632812 -17.890625 6.75 -18.390625 C 7.875 -18.898438 9.109375 -19.15625 10.453125 -19.15625 Z M 10.453125 -1.703125 C 11.878906 -1.703125 13.128906 -2.050781 14.203125 -2.75 C 15.285156 -3.445312 16.128906 -4.382812 16.734375 -5.5625 C 17.335938 -6.738281 17.640625 -8.039062 17.640625 -9.46875 C 17.640625 -10.894531 17.335938 -12.195312 16.734375 -13.375 C 16.128906 -14.550781 15.285156 -15.488281 14.203125 -16.1875 C 13.128906 -16.882812 11.878906 -17.234375 10.453125 -17.234375 C 9.023438 -17.234375 7.765625 -16.882812 6.671875 -16.1875 C 5.585938 -15.488281 4.742188 -14.550781 4.140625 -13.375 C 3.535156 -12.195312 3.234375 -10.894531 3.234375 -9.46875 C 3.234375 -8.039062 3.535156 -6.738281 4.140625 -5.5625 C 4.742188 -4.382812 5.585938 -3.445312 6.671875 -2.75 C 7.765625 -2.050781 9.023438 -1.703125 10.453125 -1.703125 Z M 10.453125 -1.703125 "/></g></g></g></svg>